<?xml version="1.0" ?><!-- Uploaded to: SVG Repo, www.svgrepo.com, Generator: SVG Repo Mixer Tools -->
<svg width="800px" height="800px" viewBox="0 0 64 64" id="duotone" xmlns="http://www.w3.org/2000/svg"><path d="M47.544,24.118A1,1,0,0,0,46.551,23H43a2,2,0,0,1-4,0H17.449a1,1,0,0,0-.993,1.118,60.471,60.471,0,0,0,3.489,14.026C21.094,41.4,22,43.971,22,47a50.269,50.269,0,0,1-1.309,11.315A3,3,0,0,0,23.611,62H40.389a3,3,0,0,0,2.92-3.685A50.269,50.269,0,0,1,42,47c0-3.029.906-5.6,2.055-8.856A60.471,60.471,0,0,0,47.544,24.118Z" style="fill:#ffbd4a"/><path d="M17.105,21a1,1,0,0,1-1-.945C16.036,18.755,16,17.391,16,16a1,1,0,0,1,2,0c0,1.354.035,2.682.1,3.945A1,1,0,0,1,17.161,21Z" style="fill:#363636"/><path d="M46.9,21h-.056a1,1,0,0,1-.943-1.054c.069-1.263.1-2.591.1-3.945a1,1,0,0,1,2,0c0,1.391-.036,2.755-.108,4.055A1,1,0,0,1,46.9,21Z" style="fill:#363636"/><path d="M19.421,11a1,1,0,0,1-.915-1.4A6,6,0,0,1,24,6a5.736,5.736,0,0,1,1.58.222A6.991,6.991,0,0,1,37.427,4.585,5.928,5.928,0,0,1,40,4a6.006,6.006,0,0,1,6,6,1,1,0,0,1-2,0,3.99,3.99,0,0,0-6.289-3.271,1,1,0,0,1-1.431-.3,4.99,4.99,0,0,0-9.12,1.344,1,1,0,0,1-1.41.652A3.992,3.992,0,0,0,20.338,10.4,1,1,0,0,1,19.421,11Z" style="fill:#363636"/><path d="M41,26a3.022,3.022,0,0,1-.491-.041A3.082,3.082,0,0,1,38,22.893V16a1,1,0,0,0-2,0,4.016,4.016,0,0,1-1.247,2.9,3.944,3.944,0,0,1-2.967,1.092A4.089,4.089,0,0,1,28,15.83a.831.831,0,0,0-.83-.83H19a1,1,0,0,0-1,1,1,1,0,0,1-2,0,3,3,0,0,1,3-3h8.17A2.834,2.834,0,0,1,30,15.83,2.119,2.119,0,0,0,31.892,18a2.006,2.006,0,0,0,1.484-.546A1.984,1.984,0,0,0,34,16a3,3,0,0,1,6,0v6.893a1.085,1.085,0,0,0,.825,1.093,1.018,1.018,0,0,0,.822-.224A1,1,0,0,0,42,23V15.83A2.834,2.834,0,0,1,44.83,13H45a3,3,0,0,1,3,3,1,1,0,0,1-2,0,1,1,0,0,0-1-1h-.17a.831.831,0,0,0-.83.83V23A3,3,0,0,1,41,26Z" style="fill:#363636"/></svg>