<?xml version="1.0" ?><!-- Uploaded to: SVG Repo, www.svgrepo.com, Generator: SVG Repo Mixer Tools -->
<svg width="800px" height="800px" viewBox="0 0 64 64" id="duotone" xmlns="http://www.w3.org/2000/svg"><path d="M57,62H7a5.006,5.006,0,0,1-5-5V21a1,1,0,0,1,2,0V57a3,3,0,0,0,3,3H57a3,3,0,0,0,3-3V21a1,1,0,0,1,2,0V57A5.006,5.006,0,0,1,57,62Z" style="fill:#363636"/><path d="M57,6H50v5a2,2,0,0,1-4,0V6H18v5a2,2,0,0,1-4,0V6H7a5.006,5.006,0,0,0-5,5v6a1,1,0,0,0,1,1H61a1,1,0,0,0,1-1V11A5.006,5.006,0,0,0,57,6Z" style="fill:#ffbd4a"/><path d="M16,14a3,3,0,0,1-3-3V5a3,3,0,0,1,6,0v6A3,3,0,0,1,16,14ZM16,4a1,1,0,0,0-1,1v6a1,1,0,0,0,2,0V5A1,1,0,0,0,16,4Z" style="fill:#363636"/><path d="M48,14a3,3,0,0,1-3-3V5a3,3,0,0,1,6,0v6A3,3,0,0,1,48,14ZM48,4a1,1,0,0,0-1,1v6a1,1,0,0,0,2,0V5A1,1,0,0,0,48,4Z" style="fill:#363636"/><path d="M45,52H41a1,1,0,0,1,0-2h4a3,3,0,0,0,3-3V37a3,3,0,0,0-3-3H41a1,1,0,0,1,0-2h4a5.006,5.006,0,0,1,5,5V47A5.006,5.006,0,0,1,45,52Z" style="fill:#363636"/><path d="M45,48H41a1,1,0,0,1,0-2h3V38H41a1,1,0,0,1,0-2h4a1,1,0,0,1,1,1V47A1,1,0,0,1,45,48Z" style="fill:#363636"/><path d="M41,35a1,1,0,0,1-1-1V31a1,1,0,0,1,2,0v3A1,1,0,0,1,41,35Z" style="fill:#363636"/><path d="M21,35a1,1,0,0,1-1-1V31a1,1,0,0,1,2,0v3A1,1,0,0,1,21,35Z" style="fill:#363636"/><path d="M37,34a2,2,0,0,1-4,0H20V55a3,3,0,0,0,3,3H39a3,3,0,0,0,3-3V34Z" style="fill:#ffbd4a"/><path d="M35,37a3,3,0,0,1-3-3V31a1,1,0,0,0-1-1H23a1,1,0,0,0-1,1,1,1,0,0,1-2,0,3,3,0,0,1,3-3h8a3,3,0,0,1,3,3v3a1,1,0,0,0,2,0V31a3,3,0,0,1,6,0,1,1,0,0,1-2,0,1,1,0,0,0-2,0v3A3,3,0,0,1,35,37Z" style="fill:#363636"/><path d="M23,26a.982.982,0,0,1-.4-.084,1,1,0,0,1-.515-1.317,4.151,4.151,0,0,1,4.56-2.4,4.748,4.748,0,0,1,7.722-1.043A4.125,4.125,0,0,1,40,25a1,1,0,0,1-2,0,2.13,2.13,0,0,0-2.128-2.128,2.1,2.1,0,0,0-1.216.388,1,1,0,0,1-1.431-.3A2.748,2.748,0,0,0,28.2,23.7a1,1,0,0,1-1.41.653A2.111,2.111,0,0,0,23.916,25.4,1,1,0,0,1,23,26Z" style="fill:#363636"/><path d="M35,37a3,3,0,0,1-3-3V31a1,1,0,0,0-1-1H23a1,1,0,0,0-1,1,1,1,0,0,1-2,0,3,3,0,0,1,3-3h8a3,3,0,0,1,3,3v3a1,1,0,0,0,2,0V31a3,3,0,0,1,6,0,1,1,0,0,1-2,0,1,1,0,0,0-2,0v3A3,3,0,0,1,35,37Z" style="fill:#363636"/><path d="M37,53a1,1,0,0,1-1-1V40a1,1,0,0,1,2,0V52A1,1,0,0,1,37,53Z" style="fill:#363636"/><path d="M31,53a1,1,0,0,1-1-1V40a1,1,0,0,1,2,0V52A1,1,0,0,1,31,53Z" style="fill:#363636"/><path d="M25,53a1,1,0,0,1-1-1V40a1,1,0,0,1,2,0V52A1,1,0,0,1,25,53Z" style="fill:#363636"/></svg>