<?xml version="1.0" ?><!-- Uploaded to: SVG Repo, www.svgrepo.com, Generator: SVG Repo Mixer Tools -->
<svg width="800px" height="800px" viewBox="0 0 64 64" id="duotone" xmlns="http://www.w3.org/2000/svg"><path d="M6.951,54c-.334,2.665-.554,5.056-.694,7H26.865c.663-2.084,1.357-4.451,2.013-7Z" style="fill:#ffbd4a"/><path d="M53,2H47a5.006,5.006,0,0,0-5,5V61a1,1,0,0,0,1,1H57a1,1,0,0,0,1-1V7A5.006,5.006,0,0,0,53,2Z" style="fill:#ffbd4a"/><path d="M24,3a3.558,3.558,0,0,0-3.533,3.973L22,20h4L27.533,6.973A3.558,3.558,0,0,0,24,3Z" style="fill:#ffbd4a"/><path d="M39,32H15a3,3,0,0,1-3-3V26a3,3,0,0,1,3-3h5a1,1,0,0,1,0,2H15a1,1,0,0,0-1,1v3a1,1,0,0,0,1,1H39a1,1,0,0,1,0,2Z" style="fill:#363636"/><path d="M39,25H24a1,1,0,0,1,0-2H39a1,1,0,0,1,0,2Z" style="fill:#363636"/><path d="M28,25a1,1,0,0,1-1-1V22a1,1,0,0,0-1-1H22a1,1,0,0,0-1,1v2a1,1,0,0,1-2,0V22a3,3,0,0,1,3-3h4a3,3,0,0,1,3,3v2A1,1,0,0,1,28,25Z" style="fill:#363636"/><path d="M26,43H22a1,1,0,0,1-1-.91l-1-11A1,1,0,1,1,22,30.91L22.913,41h2.174L26,30.91A1,1,0,1,1,28,31.09l-1,11A1,1,0,0,1,26,43Z" style="fill:#363636"/><path d="M26.865,62a1,1,0,0,1-.953-1.3C27,57.289,27.923,53.91,28.666,50.655a1.006,1.006,0,0,0-.135-.777.988.988,0,0,0-.635-.438L10.317,45.765a.972.972,0,0,0-.755.147,1.008,1.008,0,0,0-.436.658,129.234,129.234,0,0,0-1.872,14.5,1,1,0,1,1-1.994-.144A131.329,131.329,0,0,1,7.161,46.2a3.008,3.008,0,0,1,3.567-2.389l17.579,3.675A3.007,3.007,0,0,1,30.615,51.1c-.755,3.309-1.7,6.742-2.8,10.2A1,1,0,0,1,26.865,62Z" style="fill:#363636"/></svg>